<svg xmlns="http://www.w3.org/2000/svg" xmlns:xlink="http://www.w3.org/1999/xlink" viewBox="0 0 32 32" width="17" height="17" style="border-color: rgba(0,0,0,0);border-width: bpx;border-style: undefined" filter="none">
    
    <g>
    <path d="M28.8 17.76h-1.344c-0.608 0-1.184 0.48-1.344 1.056-1.271 4.465-5.314 7.68-10.107 7.68-0.002 0-0.003 0-0.005 0h0c-3.296 0-6.24-1.504-8.16-3.904-0.384-0.448-0.288-1.216 0.16-1.6l2.72-2.496c0.448-0.416 0.32-0.736-0.288-0.736h-7.328c-0.608 0-1.088 0.48-1.088 1.088v6.56c0 0.608 0.352 0.768 0.8 0.352l0.96-0.896c0.448-0.416 1.088-0.352 1.472 0.128 2.592 3.072 6.432 5.024 10.752 5.024 6.752 0 12.416-4.832 13.696-11.2 0.128-0.576-0.288-1.056-0.896-1.056zM29.216 6.272l-0.96 0.96c-0.416 0.416-1.024 0.352-1.408-0.096-2.592-3.136-6.496-5.152-10.848-5.152-6.752 0-12.416 4.8-13.696 11.2-0.128 0.576 0.288 1.056 0.896 1.056h1.344c0.608 0 1.184-0.48 1.344-1.056 1.258-4.463 5.293-7.68 10.079-7.68 0.011 0 0.023 0 0.035 0h-0.002c3.392 0 6.432 1.6 8.352 4.128 0.384 0.48 0.256 1.248-0.16 1.664l-2.176 2.176c-0.416 0.448-0.288 0.768 0.32 0.768h6.56c0.608 0 1.12-0.48 1.12-1.088v-6.56c0-0.608-0.352-0.736-0.8-0.32z" fill="rgba(57.120000000000005,222.105,225.93,1)"></path>
    </g>
  </svg>