<svg xmlns="http://www.w3.org/2000/svg" xmlns:xlink="http://www.w3.org/1999/xlink" viewBox="0 0 32 32" width="27" height="27" style="border-color: rgba(0,0,0,0);border-width: bpx;border-style: undefined" filter="none">
    
    <g>
    <path d="M3.52 3.040v25.92c0 0.576 0.48 1.056 1.056 1.056h22.848c0.576 0 1.056-0.48 1.056-1.056v-25.92c0-0.576-0.48-1.056-1.056-1.056h-22.848c-0.576 0-1.056 0.48-1.056 1.056zM6.656 27.84c-0.576 0-1.056-0.48-1.056-1.056v-0.032c0-0.576 0.48-1.056 1.056-1.056s1.024 0.48 1.024 1.056v0.032c0 0.576-0.448 1.056-1.024 1.056zM6.656 23.52c-0.576 0-1.056-0.448-1.056-1.024v-0.064c0-0.576 0.48-1.056 1.056-1.056s1.024 0.48 1.024 1.056v0.064c0 0.004 0 0.009 0 0.014 0 0.558-0.452 1.010-1.010 1.010-0.005 0-0.010-0-0.015-0h0.001zM6.656 19.232c-0.576 0-1.056-0.48-1.056-1.056v-0.064c0-0.576 0.48-1.056 1.056-1.056s1.024 0.48 1.024 1.056v0.064c0 0.576-0.448 1.056-1.024 1.056zM6.656 14.912c-0.003 0-0.007 0-0.011 0-0.577 0-1.045-0.468-1.045-1.045 0-0.004 0-0.008 0-0.012v0.001-0.032c0-0.576 0.48-1.056 1.056-1.056s1.024 0.48 1.024 1.056v0.032c0 0.608-0.448 1.056-1.024 1.056zM6.656 10.624c-0.576 0-1.056-0.48-1.056-1.056v-0.064c0-0.576 0.48-1.056 1.056-1.056s1.024 0.48 1.024 1.056v0.064c0 0.576-0.448 1.056-1.024 1.056zM6.656 6.304c-0.576 0-1.056-0.48-1.056-1.056v-0.032c0-0.576 0.48-1.056 1.056-1.056s1.024 0.448 1.024 1.056v0.032c0 0.576-0.448 1.056-1.024 1.056zM21.184 27.84h-10.368c-0.576 0-1.056-0.48-1.056-1.056v-8.672c0-0.576 0.48-1.056 1.056-1.056h10.368c0.576 0 1.056 0.48 1.056 1.056v8.672c0 0.576-0.48 1.056-1.056 1.056zM21.184 14.912h-10.368c-0.003 0-0.007 0-0.011 0-0.577 0-1.045-0.468-1.045-1.045 0-0.004 0-0.008 0-0.012v0.001-8.64c0-0.576 0.48-1.056 1.056-1.056h10.368c0.576 0 1.056 0.48 1.056 1.056v8.672c0 0.576-0.48 1.024-1.056 1.024zM25.344 27.84c-0.576 0-1.024-0.48-1.024-1.056v-0.032c0-0.576 0.448-1.056 1.024-1.056s1.056 0.48 1.056 1.056v0.032c0 0.576-0.48 1.056-1.056 1.056zM25.344 23.52c-0.004 0-0.009 0-0.014 0-0.558 0-1.010-0.452-1.010-1.010 0-0.005 0-0.010 0-0.015v0.001-0.064c0-0.576 0.448-1.056 1.024-1.056s1.056 0.48 1.056 1.056v0.064c0 0.576-0.48 1.024-1.056 1.024zM25.344 19.232c-0.576 0-1.024-0.48-1.024-1.056v-0.064c0-0.576 0.448-1.056 1.024-1.056s1.056 0.48 1.056 1.056v0.064c0 0.576-0.48 1.056-1.056 1.056zM25.344 14.912c-0.576 0-1.024-0.448-1.024-1.056v-0.032c0-0.576 0.448-1.056 1.024-1.056s1.056 0.48 1.056 1.056v0.032c0 0.608-0.48 1.056-1.056 1.056zM25.344 10.624c-0.576 0-1.024-0.48-1.024-1.056v-0.064c0-0.576 0.448-1.056 1.024-1.056s1.056 0.48 1.056 1.056v0.064c0 0.576-0.48 1.056-1.056 1.056zM25.344 6.304c-0.576 0-1.024-0.48-1.024-1.056v-0.032c0-0.576 0.448-1.056 1.024-1.056s1.056 0.448 1.056 1.056v0.032c0 0.576-0.48 1.056-1.056 1.056z" fill="rgba(255,255,255,1)"></path>
    </g>
  </svg>