<?xml version="1.0" standalone="no"?><!DOCTYPE svg PUBLIC "-//W3C//DTD SVG 1.1//EN" "http://www.w3.org/Graphics/SVG/1.1/DTD/svg11.dtd"><svg t="1699952539369" class="icon" viewBox="0 0 1024 1024" version="1.1" xmlns="http://www.w3.org/2000/svg" p-id="11477" xmlns:xlink="http://www.w3.org/1999/xlink" width="200" height="200"><path d="M864 96H608v64h210.8l-340 340 45.2 45.3 340-340V416h64V96z" p-id="11478"></path><path d="M864 846.8c0 26.5-18.8 48-41.8 48H201.8c-23 0-41.8-21.5-41.8-48V177.2c0-26.5 18.8-48 41.8-48H512v-64H201.8c-58.3 0-105.8 50.2-105.8 112v669.6c0 61.8 47.5 112 105.8 112h620.4c58.3 0 105.8-50.2 105.8-112V512h-64v334.8z" p-id="11479"></path></svg>