<svg xmlns="http://www.w3.org/2000/svg" xmlns:xlink="http://www.w3.org/1999/xlink" viewBox="0 0 32 32" width="24" height="24" style="border-color: rgba(0,0,0,0);border-width: bpx;border-style: undefined" filter="none">
    
    <g>
    <path d="M4 4h2.667v2.667h-2.667v-2.667zM9.333 4h2.667v2.667h-2.667v-2.667zM14.667 4h2.667v2.667h-2.667v-2.667zM20 4h2.667v2.667h-2.667v-2.667zM25.333 4h2.667v2.667h-2.667v-2.667zM25.333 9.333h2.667v2.667h-2.667v-2.667zM4 25.333h2.667v2.667h-2.667v-2.667zM4 20h2.667v2.667h-2.667v-2.667zM4 14.667h2.667v2.667h-2.667v-2.667zM4 9.333h2.667v2.667h-2.667v-2.667zM14.223 14.667l1.381-2.073c0.243-0.36 0.649-0.593 1.109-0.593 0 0 0 0 0 0h3.907c0 0 0 0 0 0 0.461 0 0.867 0.233 1.106 0.589l0.003 0.005 1.381 2.073h3.556c0.736 0 1.333 0.597 1.333 1.333v0 10.667c0 0.736-0.597 1.333-1.333 1.333v0h-16c-0.736 0-1.333-0.597-1.333-1.333v0-10.667c0-0.736 0.597-1.333 1.333-1.333v0h3.556zM12 25.333h13.333v-8h-3.649l-1.777-2.667h-2.48l-1.777 2.667h-3.649v8zM18.667 24c-1.473 0-2.667-1.194-2.667-2.667s1.194-2.667 2.667-2.667v0c1.473 0 2.667 1.194 2.667 2.667s-1.194 2.667-2.667 2.667v0z" fill="rgba(255,255,255,1)"></path>
    </g>
  </svg>