<svg t="1699953479618" class="icon" viewBox="0 0 1070 1024" version="1.1" xmlns="http://www.w3.org/2000/svg" p-id="12497" width="200" height="200"><path d="M577.937719 935.741141H147.721699A79.739048 79.739048 0 0 1 68.153033 856.172475V147.721699A79.568666 79.568666 0 0 1 147.721699 68.153033h736.904667a79.568666 79.568666 0 0 1 79.398284 79.568666v355.588449a34.076516 34.076516 0 1 0 68.153032 0V147.721699A147.721699 147.721699 0 0 0 884.626366 0H147.721699A147.892081 147.892081 0 0 0 0 147.721699v708.450776a147.892081 147.892081 0 0 0 147.721699 147.721699h430.21602a34.076516 34.076516 0 0 0 0-68.153033z" p-id="12498"></path><path d="M722.762913 364.277961l17.038259 17.038258 130.68344-130.683441-60.315434-60.315434-130.683441 130.853823L699.761265 340.765164a19.253232 19.253232 0 0 0-3.066887 2.044591l-128.809232 129.149997-10.734103-10.393337a8.348747 8.348747 0 0 1-2.385356-6.985686 55.544722 55.544722 0 0 1 6.133773-14.482519v-2.044591a204.459099 204.459099 0 0 0 15.334433-63.211938V371.093264v-4.259565A210.592871 210.592871 0 0 0 314.526247 155.900063l-28.965039 7.326451 121.142015 121.823546a6.644921 6.644921 0 0 1 1.363061 1.703826l3.066887 3.066886a9.200659 9.200659 0 0 1 3.237269 6.304156 9.88219 9.88219 0 0 1-2.555739 6.64492l-102.229549 103.081463a8.859894 8.859894 0 0 1-6.985686 2.385356 8.007981 8.007981 0 0 1-6.304156-3.748417L170.382582 277.553226 162.715366 306.688648a210.592871 210.592871 0 0 0 299.702962 240.580206L477.07123 562.262521l-107.341027 107.852174-41.57335-41.57335a17.038258 17.038258 0 0 0-24.194327 24.194327l21.638588 21.468205L233.083372 766.721619a42.595646 42.595646 0 0 0 60.145052 60.315435l92.517742-92.517743 34.076516 34.076517a17.038258 17.038258 0 0 0 11.926781 4.941095 17.038258 17.038258 0 0 0 12.097163-4.941095 17.038258 17.038258 0 0 0 0-24.194327l-50.092479-49.922096 107.170644-107.170644 45.832915 47.707123a17.038258 17.038258 0 0 0 12.267546 5.28186 17.038258 17.038258 0 0 0 11.756398-4.770713 17.038258 17.038258 0 0 0 0-24.023944L528.186005 566.18132l-61.167347-60.996964-11.415633 6.815303a176.516355 176.516355 0 0 1-266.307976-165.441487l77.524075 78.035223 1.703825 1.533443a42.766028 42.766028 0 0 0 29.816952 17.038258 42.25488 42.25488 0 0 0 34.076517-12.267546l102.229549-103.081462a42.766028 42.766028 0 0 0-1.533443-61.848877 34.928429 34.928429 0 0 0-3.407652-3.9188l-76.672162-77.183309a176.516355 176.516355 0 0 1 189.635814 179.242476 46.17368 46.17368 0 0 0 0 6.985686v2.214973a178.049798 178.049798 0 0 1-11.756398 51.114775 81.272492 81.272492 0 0 0-9.541425 26.4093 42.25488 42.25488 0 0 0 12.437929 34.076517l116.541686 113.815565a17.038258 17.038258 0 1 0 23.853561-24.36471l-81.954022-78.54637 128.468467-128.63885a14.993667 14.993667 0 0 0 2.044591-2.896503z" p-id="12499"></path><path d="M1060.631574 828.911262a53.329748 53.329748 0 0 0-6.474538-4.259565 55.374339 55.374339 0 0 1-26.068536-19.593997 53.500131 53.500131 0 0 1-9.882189-32.202308 52.648218 52.648218 0 0 1 11.756398-34.076516 64.915764 64.915764 0 0 1 28.453891-20.786675 18.912467 18.912467 0 0 0 8.519129-6.644921 19.593997 19.593997 0 0 0 2.896504-14.312137 137.328361 137.328361 0 0 0-8.348746-31.00963 61.167347 61.167347 0 0 0-14.312137-22.831266 16.015963 16.015963 0 0 0-10.393338-4.770712 17.038258 17.038258 0 0 0-10.56372 2.044591 69.175328 69.175328 0 0 1-34.076516 6.304156 49.751714 49.751714 0 0 1-31.861543-14.312137 53.840896 53.840896 0 0 1-15.504815-30.157717 56.907782 56.907782 0 0 1 4.259564-32.883839 43.958706 43.958706 0 0 0 2.214974-7.326451 12.097163 12.097163 0 0 0-1.703826-9.371042 51.114775 51.114775 0 0 0-11.586015-12.949076 71.90145 71.90145 0 0 0-15.845581-9.711807 111.430209 111.430209 0 0 0-17.038258-5.793008 65.767677 65.767677 0 0 0-17.038258-2.214973 13.289841 13.289841 0 0 0-9.541425 4.600329 36.461873 36.461873 0 0 0-6.64492 8.859895A55.715104 55.715104 0 0 1 850.720232 562.262521a54.522426 54.522426 0 0 1-34.076516 10.56372A49.070184 49.070184 0 0 1 785.463704 562.262521a64.404616 64.404616 0 0 1-18.742085-25.72777 31.861543 31.861543 0 0 0-5.622625-9.371042 14.141754 14.141754 0 0 0-11.074868-4.60033 69.686476 69.686476 0 0 0-14.652902 1.874209 110.237531 110.237531 0 0 0-18.742084 5.622625 82.976317 82.976317 0 0 0-18.060553 9.541425 29.135422 29.135422 0 0 0-11.586016 13.119458 11.926781 11.926781 0 0 0 0 7.496834 53.329748 53.329748 0 0 0 1.874208 7.496834c0 2.214974 0 5.793008 1.363061 10.904485a89.11009 89.11009 0 0 1 0 17.038258 83.1467 83.1467 0 0 1-3.748417 18.742084 40.039907 40.039907 0 0 1-9.371042 15.84558 55.885487 55.885487 0 0 1-31.00963 15.334433 66.278824 66.278824 0 0 1-34.076516-4.089182 76.842545 76.842545 0 0 0-9.030277-2.214974 13.460224 13.460224 0 0 0-8.348746 2.214974 34.076516 34.076516 0 0 0-9.88219 9.882189 103.251845 103.251845 0 0 0-8.178364 14.823285 147.892081 147.892081 0 0 0-5.622625 17.038258 69.516094 69.516094 0 0 0-2.044591 15.675198 26.238918 26.238918 0 0 0 3.237269 12.608311 13.800989 13.800989 0 0 0 8.007981 7.837599 77.86484 77.86484 0 0 1 28.965039 20.44591 46.684827 46.684827 0 0 1 12.949076 32.883838 48.899801 48.899801 0 0 1-12.949076 33.054221 74.797954 74.797954 0 0 1-29.816952 20.44591 17.038258 17.038258 0 0 0-10.734103 15.164049 40.039907 40.039907 0 0 0 1.022296 17.038259 98.821898 98.821898 0 0 0 6.133773 19.423614 126.764641 126.764641 0 0 0 9.200659 17.038258 23.683179 23.683179 0 0 0 11.074868 9.88219 21.808971 21.808971 0 0 0 14.993667 1.192678 89.450856 89.450856 0 0 1 23.172032-4.429947 78.205605 78.205605 0 0 1 20.445909 1.874208 35.950725 35.950725 0 0 1 18.401319 10.56372 49.070184 49.070184 0 0 1 13.630607 29.305805A51.114775 51.114775 0 0 1 681.530328 971.180718a34.076516 34.076516 0 0 0-3.918799 14.312137 17.038258 17.038258 0 0 0 2.896504 8.859894 48.899801 48.899801 0 0 0 11.24525 10.734103 85.191291 85.191291 0 0 0 17.038259 9.371042 168.167609 168.167609 0 0 0 18.912466 6.815303 59.633904 59.633904 0 0 0 17.038258 2.726121 25.216622 25.216622 0 0 0 11.926781-2.896503 18.742084 18.742084 0 0 0 8.007982-9.541425 66.108442 66.108442 0 0 1 20.786675-28.283509 51.114775 51.114775 0 0 1 33.394986-12.097163 51.114775 51.114775 0 0 1 33.054221 11.926781 68.153033 68.153033 0 0 1 20.105144 28.794656 21.808971 21.808971 0 0 0 5.963391 8.178364 14.482519 14.482519 0 0 0 9.200659 3.748417 65.256529 65.256529 0 0 0 16.015963-2.214974 96.266159 96.266159 0 0 0 17.038258-5.793007 128.979615 128.979615 0 0 0 15.334432-8.348747 39.528759 39.528759 0 0 0 10.222955-9.030277 20.105145 20.105145 0 0 0 1.703826-21.468205 60.145051 60.145051 0 0 1-4.941095-32.883839 54.692809 54.692809 0 0 1 15.16405-30.668864 34.076516 34.076516 0 0 1 14.312137-9.20066 81.442874 81.442874 0 0 1 17.038258-3.407651 66.960355 66.960355 0 0 1 17.038258 0 111.770974 111.770974 0 0 1 13.460224 2.896504 29.476187 29.476187 0 0 0 10.734103 2.214973 26.068535 26.068535 0 0 0 11.415633-3.237269 34.076516 34.076516 0 0 0 11.756398-10.734103 85.191291 85.191291 0 0 0 9.20066-17.038258 95.073481 95.073481 0 0 0 5.28186-18.571701 44.810619 44.810619 0 0 0 0-15.504815 25.04624 25.04624 0 0 0-7.326451-11.926781zM926.540482 817.836394a119.267807 119.267807 0 0 1-25.04624 37.484168 112.793269 112.793269 0 0 1-37.313786 25.216622 115.349008 115.349008 0 0 1-45.832914 9.20066 113.134035 113.134035 0 0 1-45.49215-9.20066 116.541686 116.541686 0 0 1-37.143402-25.216622 124.549668 124.549668 0 0 1-25.04624-37.484168 117.052834 117.052834 0 0 1 0-90.984299A117.393599 117.393599 0 0 1 772.855392 664.49207a113.134035 113.134035 0 0 1 44.981002-9.030277 115.349008 115.349008 0 0 1 45.832915 9.20066 117.734364 117.734364 0 0 1 37.313785 25.046239 116.882451 116.882451 0 0 1 25.557388 128.127702z" p-id="12500"></path></svg>